<svg width="73" height="66" viewBox="0 0 73 66" fill="none" xmlns="http://www.w3.org/2000/svg">
<path d="M26.8504 36C24.8925 34.0338 23.5592 31.5288 23.019 28.8016C22.4788 26.0744 22.7561 23.2477 23.8157 20.6788C24.8753 18.1098 26.6698 15.9141 28.972 14.3693C31.2743 12.8245 33.9811 12 36.75 12C39.5189 12 42.2257 12.8245 44.528 14.3693C46.8302 15.9141 48.6247 18.1098 49.6843 20.6788C50.7439 23.2477 51.0212 26.0744 50.481 28.8016C49.9408 31.5288 48.6075 34.0338 46.6496 36" stroke="#1A1A1A" stroke-width="2.5" stroke-linecap="round" stroke-linejoin="round"/>
<path d="M42.75 19.8103L36.75 25.8103" stroke="#1A1A1A" stroke-width="2.5" stroke-linecap="round" stroke-linejoin="round"/>
<path d="M25.9029 52V50.86H27.8349V44.956H26.2509V44.08C27.0789 43.936 27.6669 43.72 28.1709 43.408H29.2149V50.86H30.9429V52H25.9029ZM33.5627 52.156C33.0467 52.156 32.6387 51.76 32.6387 51.196C32.6387 50.62 33.0467 50.212 33.5627 50.212C34.0787 50.212 34.4867 50.62 34.4867 51.196C34.4867 51.76 34.0787 52.156 33.5627 52.156ZM38.8289 52.156C37.0769 52.156 35.9729 50.56 35.9729 47.668C35.9729 44.776 37.0769 43.24 38.8289 43.24C40.5929 43.24 41.6849 44.788 41.6849 47.668C41.6849 50.56 40.5929 52.156 38.8289 52.156ZM38.8289 51.064C39.7289 51.064 40.3649 50.14 40.3649 47.668C40.3649 45.196 39.7289 44.332 38.8289 44.332C37.9289 44.332 37.2929 45.196 37.2929 47.668C37.2929 50.14 37.9289 51.064 38.8289 51.064ZM42.4927 52L44.6287 48.556L42.6487 45.4H44.1367L44.9287 46.72C45.1207 47.092 45.3367 47.464 45.5527 47.836H45.6007C45.7807 47.464 45.9727 47.092 46.1527 46.72L46.8487 45.4H48.2887L46.3087 48.712L48.4327 52H46.9327L46.0687 50.596C45.8527 50.212 45.6247 49.804 45.3847 49.432H45.3247C45.1207 49.804 44.9167 50.2 44.7127 50.596L43.9447 52H42.4927Z" fill="#1A1A1A"/>
</svg>
