<svg width="73" height="66" viewBox="0 0 73 66" fill="none" xmlns="http://www.w3.org/2000/svg">
<path d="M16.25 36L26.0011 12H29.3115L19.9921 36H16.25ZM36.292 36L26.9726 12H30.4629L40.25 36H36.292ZM21.1795 26.4333H35.0686V29.3667H21.1795V26.4333Z" fill="#1A1A1A"/>
<path d="M40.1805 35.9718C40.1711 35.9949 40.1738 36.0212 40.1878 36.0419C40.2017 36.0626 40.225 36.075 40.25 36.075H42.7448C42.7757 36.075 42.8035 36.056 42.8147 36.0271L44.5133 31.6528H51.8428L53.5414 36.0271C53.5526 36.056 53.5804 36.075 53.6113 36.075H56.25C56.275 36.075 56.2983 36.0626 56.3122 36.0418C56.3262 36.0211 56.3289 35.9948 56.3194 35.9717L49.7947 19.9717C49.7832 19.9435 49.7557 19.925 49.7253 19.925H48.9576H47.3984H46.7507C46.7202 19.925 46.6928 19.9435 46.6813 19.9718L40.1805 35.9718ZM48.178 22.2149L51.0252 29.5472H45.3309L48.178 22.2149Z" fill="#666666" stroke="#666666" stroke-width="0.15" stroke-linejoin="round"/>
<path d="M14.212 44.176V45.688H13.12V43.12H17.704C17.548 42.808 17.356 42.46 17.164 42.184L18.256 41.836C18.556 42.232 18.856 42.724 19.024 43.12H23.188V45.688H22.048V44.176H14.212ZM23.296 48.328V49.396H18.748V51.64C18.748 52.264 18.592 52.576 18.1 52.744C17.62 52.924 16.924 52.936 15.94 52.936C15.868 52.612 15.64 52.108 15.46 51.82C16.216 51.844 17.044 51.844 17.272 51.832C17.488 51.832 17.56 51.772 17.56 51.604V49.396H13.012V48.328H17.56V47.632C18.172 47.332 18.832 46.864 19.372 46.408H15.004V45.376H20.5L20.752 45.316L21.508 45.892C20.776 46.636 19.768 47.416 18.748 48.004V48.328H23.296ZM29.572 48.82L28.708 49.156C28.672 48.964 28.636 48.76 28.564 48.508C25.9 48.952 25.48 49.048 25.24 49.192C25.192 48.976 25.012 48.448 24.88 48.172C25.18 48.112 25.444 47.824 25.816 47.38C25.996 47.188 26.332 46.768 26.716 46.204C25.6 46.336 25.336 46.408 25.156 46.492C25.096 46.276 24.928 45.76 24.808 45.484C25.024 45.424 25.24 45.196 25.48 44.836C25.744 44.488 26.536 43.168 26.992 41.896L28.024 42.316C27.556 43.36 26.932 44.452 26.296 45.328L27.376 45.232C27.7 44.728 28 44.188 28.264 43.648L29.2 44.236C28.456 45.544 27.532 46.852 26.596 47.908L28.312 47.68C28.18 47.332 28.048 46.996 27.904 46.696L28.696 46.42C29.068 47.188 29.452 48.196 29.572 48.82ZM25.336 49.648L26.224 49.804C26.104 50.836 25.9 51.964 25.648 52.696C25.456 52.6 25.036 52.456 24.808 52.384C25.084 51.676 25.24 50.608 25.336 49.648ZM26.656 49.768L27.448 49.588C27.592 50.344 27.724 51.316 27.76 51.964L26.92 52.18C26.908 51.52 26.788 50.536 26.656 49.768ZM34.18 46.852H32.044C32.296 47.8 32.644 48.7 33.112 49.492C33.58 48.712 33.94 47.824 34.18 46.852ZM33.244 43.528H31.528C31.516 44.344 31.48 45.112 31.444 45.856H32.836C32.992 45.112 33.124 44.248 33.244 43.528ZM34.756 45.808L35.452 46.06C35.152 47.812 34.576 49.276 33.796 50.452C34.348 51.1 35.008 51.616 35.788 51.952C35.524 52.168 35.2 52.588 35.032 52.888C34.288 52.504 33.652 51.976 33.124 51.34C32.548 52 31.888 52.54 31.192 52.972C31.036 52.696 30.724 52.312 30.484 52.108C31.216 51.724 31.888 51.148 32.464 50.416C31.972 49.6 31.6 48.676 31.3 47.656C31.072 49.768 30.616 51.52 29.668 52.888C29.5 52.708 28.972 52.336 28.708 52.18C28.936 51.88 29.128 51.556 29.308 51.208L28.504 51.484C28.408 50.968 28.168 50.152 27.952 49.54L28.72 49.3C28.96 49.888 29.212 50.68 29.32 51.196C30.232 49.312 30.424 46.66 30.448 43.528H29.344V42.484H33.496L33.664 42.436L34.432 42.532C34.3 43.54 34.096 44.8 33.892 45.856H34.552L34.756 45.808ZM40.312 43.492L39.292 43.792C39.184 43.36 38.932 42.664 38.716 42.16L39.7 41.896C39.94 42.4 40.204 43.06 40.312 43.492ZM43.864 45.16L43.828 45.244C44.068 46.492 44.392 47.632 44.848 48.64C45.316 47.644 45.616 46.504 45.82 45.16H43.864ZM47.8 45.16H46.936C46.636 47.008 46.18 48.52 45.484 49.78C46.108 50.728 46.912 51.484 47.92 51.952C47.68 52.168 47.32 52.6 47.164 52.912C46.192 52.408 45.436 51.688 44.824 50.8C44.116 51.688 43.228 52.408 42.112 52.984C42.004 52.732 41.692 52.228 41.476 52.012C42.652 51.472 43.552 50.728 44.212 49.768C43.768 48.904 43.432 47.908 43.156 46.828C42.928 47.296 42.664 47.716 42.388 48.088C42.232 47.884 41.884 47.512 41.62 47.284C41.548 50.728 41.464 51.988 41.176 52.384C40.972 52.66 40.768 52.768 40.432 52.816C40.144 52.864 39.64 52.864 39.148 52.84C39.112 52.54 39.004 52.108 38.86 51.82C39.292 51.868 39.688 51.868 39.88 51.868C40.048 51.868 40.156 51.832 40.228 51.7C40.42 51.448 40.504 50.344 40.564 47.272H39.196C39.196 49.228 38.956 51.256 37.42 52.924C37.228 52.684 36.868 52.384 36.592 52.192C37.972 50.68 38.152 48.868 38.152 47.248V44.848H36.844V43.804H42.1V44.848H39.196V46.252H41.644C41.644 46.252 41.644 46.588 41.632 46.732L41.62 47.092C42.556 45.868 43.168 43.936 43.504 41.932L44.644 42.112C44.512 42.796 44.356 43.48 44.188 44.128H47.8V45.16ZM59.608 46.408H55.228C56.044 48.904 57.556 50.932 59.824 51.88C59.548 52.12 59.176 52.588 58.996 52.924C56.752 51.88 55.3 49.936 54.364 47.392C53.752 49.564 52.456 51.64 49.732 52.924C49.552 52.624 49.192 52.228 48.88 51.988C51.736 50.74 52.9 48.58 53.38 46.408H49.12V45.256H53.584C53.728 44.056 53.716 42.904 53.728 41.944H54.94C54.928 42.916 54.916 44.068 54.772 45.256H59.608V46.408Z" fill="#1A1A1A"/>
</svg>
