<svg width="73" height="66" viewBox="0 0 73 66" fill="none" xmlns="http://www.w3.org/2000/svg">
<path d="M16.75 36L26.5011 12H29.8115L20.4921 36H16.75ZM36.792 36L27.4726 12H30.9629L40.75 36H36.792ZM21.6795 26.4333H35.5686V29.3667H21.6795V26.4333Z" fill="#666666"/>
<path d="M40.6805 35.9718C40.6711 35.9949 40.6738 36.0212 40.6878 36.0419C40.7017 36.0626 40.725 36.075 40.75 36.075H43.2448C43.2757 36.075 43.3035 36.056 43.3147 36.0271L45.0133 31.6528H52.3428L54.0414 36.0271C54.0526 36.056 54.0804 36.075 54.1113 36.075H56.75C56.775 36.075 56.7983 36.0626 56.8122 36.0418C56.8262 36.0211 56.8289 35.9948 56.8194 35.9717L50.2947 19.9717C50.2832 19.9435 50.2557 19.925 50.2253 19.925H49.4576H47.8984H47.2507C47.2202 19.925 47.1928 19.9435 47.1813 19.9718L40.6805 35.9718ZM48.678 22.2149L51.5252 29.5472H45.8309L48.678 22.2149Z" fill="#1A1A1A" stroke="#1A1A1A" stroke-width="0.15" stroke-linejoin="round"/>
<path d="M14.712 44.176V45.688H13.62V43.12H18.204C18.048 42.808 17.856 42.46 17.664 42.184L18.756 41.836C19.056 42.232 19.356 42.724 19.524 43.12H23.688V45.688H22.548V44.176H14.712ZM23.796 48.328V49.396H19.248V51.64C19.248 52.264 19.092 52.576 18.6 52.744C18.12 52.924 17.424 52.936 16.44 52.936C16.368 52.612 16.14 52.108 15.96 51.82C16.716 51.844 17.544 51.844 17.772 51.832C17.988 51.832 18.06 51.772 18.06 51.604V49.396H13.512V48.328H18.06V47.632C18.672 47.332 19.332 46.864 19.872 46.408H15.504V45.376H21L21.252 45.316L22.008 45.892C21.276 46.636 20.268 47.416 19.248 48.004V48.328H23.796ZM30.072 48.82L29.208 49.156C29.172 48.964 29.136 48.76 29.064 48.508C26.4 48.952 25.98 49.048 25.74 49.192C25.692 48.976 25.512 48.448 25.38 48.172C25.68 48.112 25.944 47.824 26.316 47.38C26.496 47.188 26.832 46.768 27.216 46.204C26.1 46.336 25.836 46.408 25.656 46.492C25.596 46.276 25.428 45.76 25.308 45.484C25.524 45.424 25.74 45.196 25.98 44.836C26.244 44.488 27.036 43.168 27.492 41.896L28.524 42.316C28.056 43.36 27.432 44.452 26.796 45.328L27.876 45.232C28.2 44.728 28.5 44.188 28.764 43.648L29.7 44.236C28.956 45.544 28.032 46.852 27.096 47.908L28.812 47.68C28.68 47.332 28.548 46.996 28.404 46.696L29.196 46.42C29.568 47.188 29.952 48.196 30.072 48.82ZM25.836 49.648L26.724 49.804C26.604 50.836 26.4 51.964 26.148 52.696C25.956 52.6 25.536 52.456 25.308 52.384C25.584 51.676 25.74 50.608 25.836 49.648ZM27.156 49.768L27.948 49.588C28.092 50.344 28.224 51.316 28.26 51.964L27.42 52.18C27.408 51.52 27.288 50.536 27.156 49.768ZM34.68 46.852H32.544C32.796 47.8 33.144 48.7 33.612 49.492C34.08 48.712 34.44 47.824 34.68 46.852ZM33.744 43.528H32.028C32.016 44.344 31.98 45.112 31.944 45.856H33.336C33.492 45.112 33.624 44.248 33.744 43.528ZM35.256 45.808L35.952 46.06C35.652 47.812 35.076 49.276 34.296 50.452C34.848 51.1 35.508 51.616 36.288 51.952C36.024 52.168 35.7 52.588 35.532 52.888C34.788 52.504 34.152 51.976 33.624 51.34C33.048 52 32.388 52.54 31.692 52.972C31.536 52.696 31.224 52.312 30.984 52.108C31.716 51.724 32.388 51.148 32.964 50.416C32.472 49.6 32.1 48.676 31.8 47.656C31.572 49.768 31.116 51.52 30.168 52.888C30 52.708 29.472 52.336 29.208 52.18C29.436 51.88 29.628 51.556 29.808 51.208L29.004 51.484C28.908 50.968 28.668 50.152 28.452 49.54L29.22 49.3C29.46 49.888 29.712 50.68 29.82 51.196C30.732 49.312 30.924 46.66 30.948 43.528H29.844V42.484H33.996L34.164 42.436L34.932 42.532C34.8 43.54 34.596 44.8 34.392 45.856H35.052L35.256 45.808ZM43.692 51.364H48.156V52.444H37.416V51.364H38.976V45.892H40.128V51.364H42.516V43.852H37.848V42.76H47.784V43.852H43.692V46.792H47.268V47.872H43.692V51.364ZM52.788 46.192V47.176H56.892V46.192H52.788ZM59.208 48.868V51.328C59.208 51.868 59.088 52.168 58.68 52.336C58.26 52.492 57.648 52.504 56.748 52.504C56.688 52.204 56.52 51.772 56.376 51.484C57.012 51.508 57.648 51.508 57.816 51.508C58.008 51.496 58.056 51.46 58.056 51.316V49.876H55.56V52.948H54.408V49.876H51.756V52.408H50.628V48.868H54.408V47.992H51.72V45.376H58.032V47.992H55.56V48.868H59.208ZM57.9 43.696H59.892V46.36H58.788V44.656H50.928V46.36H49.86V43.696H51.636C51.444 43.324 51.12 42.808 50.82 42.436L51.828 42.04C52.2 42.436 52.584 43 52.776 43.384L52.068 43.696H54.3V41.932H55.452V43.696H57.6L56.88 43.42C57.192 43.036 57.612 42.436 57.816 42.028L59.004 42.412C58.632 42.88 58.236 43.36 57.9 43.696Z" fill="#1A1A1A"/>
</svg>
